{
	"materials":[{
		"pbrMetallicRoughness":{
			"baseColorFactor":[0.488,
			0.8,
			0.6128000000000001,
			1.0],
			"metallicFactor":1.0,
			"roughnessFactor":0.0
		},
		"emissiveFactor":[0.0,
		0.0,
		0.0],
		"alphaMode":"OPAQUE",
		"doubleSided":true,
		"name":"Mat"
	}],
	"asset":{
		"version":"2.0",
		"generator":"Created using the official Cinema 4D glTF Exporter 1.000x284978"
	},
	"scenes":[{
		"nodes":[0]
	}],
	"nodes":[{
		"name":"teapot",
		"translation":[0.0,
		0.0,
		0.0],
		"rotation":[0.0,
		0.0,
		0.0,
		-1.0],
		"scale":[1.0,
		1.0,
		1.0],
		"children":[1]
	},
	{
		"name":"Default",
		"translation":[8.06311321258545,
		-0.23727628588676454,
		1.74912428855896],
		"rotation":[0.0,
		0.0,
		0.0,
		-1.0],
		"scale":[1.0,
		1.0,
		1.0],
		"mesh":0
	}],
	"meshes":[{
		"name":"Default",
		"primitives":[{
			"attributes":{
				"TEXCOORD_0":5,
				"POSITION":3,
				"NORMAL":4
			},
			"indices":2,
			"material":0
		}]
	}],
	"accessors":[{
		"bufferView":0,
		"type":"SCALAR",
		"componentType":5126,
		"count":181,
		"min":[0.0],
		"byteOffset":0,
		"max":[6.0]
	},
	{
		"bufferView":0,
		"type":"VEC4",
		"componentType":5126,
		"count":181,
		"min":[0.0,
		-1.0,
		0.0,
		-1.0],
		"byteOffset":724,
		"max":[6.092183646444482e-9,
		0.0,
		4.289108623822813e-9,
		1.0]
	},
	{
		"bufferView":1,
		"type":"SCALAR",
		"componentType":5123,
		"count":132711,
		"min":[0],
		"byteOffset":0,
		"max":[25344]
	},
	{
		"bufferView":2,
		"type":"VEC3",
		"componentType":5126,
		"count":25345,
		"min":[-33.966773986816409,
		-0.4243643879890442,
		-21.340028762817384],
		"byteOffset":0,
		"max":[33.80746078491211,
		32.31523895263672,
		15.334096908569336]
	},
	{
		"bufferView":2,
		"type":"VEC3",
		"componentType":5126,
		"count":25345,
		"min":[-0.9998920559883118,
		-0.9995800256729126,
		-0.9999646544456482],
		"byteOffset":12,
		"max":[0.999809205532074,
		0.9999871850013733,
		0.9999793767929077]
	},
	{
		"bufferView":2,
		"type":"VEC2",
		"componentType":5126,
		"count":25345,
		"min":[0.00002455889989505522,
		0.00007999999797903001],
		"byteOffset":24,
		"max":[0.9954040050506592,
		0.999984622001648]
	}],
	"bufferViews":[{
		"buffer":0,
		"byteOffset":0,
		"byteLength":3620
	},
	{
		"buffer":1,
		"target":34963,
		"byteOffset":0,
		"byteLength":265422
	},
	{
		"buffer":1,
		"target":34962,
		"byteOffset":265424,
		"byteLength":811040,
		"byteStride":32
	}],
	"buffers":[{
		"uri":"data:application/octet-stream;base64,",
		"byteLength":3620
	},
	{
		"uri":"data:application/octet-stream;base64,",
		"byteLength":1076464
	}],
	"animations":[{
		"samplers":[{
			"input":0,
			"interpolation":"LINEAR",
			"output":1
		}],
		"channels":[{
			"sampler":0,
			"target":{
				"node":0,
				"path":"rotation"
			}
		}]
	}]
}